                                                                        S0000001
,,31HOpen CASCADE IGES processor 6.9,13HFilename.iges,                  G0000001
16HOpen CASCADE 6.9,31HOpen CASCADE IGES processor 6.9,32,308,15,308,15,G0000002
,1.,2,2HMM,1,0.01,15H20171113.142540,1E-07,50.,3Hbmj,,11,0,             G0000003
15H20171113.142540,;                                                    G0000004
     186       1       0       0       0       0       0       000000000D0000001
     186       0       0       1       0                               0D0000002
     514       2       0       0       0       0       0       000010000D0000003
     514       0       0       1       1                               0D0000004
     510       3       0       0       0       0       0       000010000D0000005
     510       0       0       1       1                               0D0000006
     190       4       0       0       0       0       0       000010000D0000007
     190       0       0       1       1                               0D0000008
     116       5       0       0       0       0       0       000010400D0000009
     116       0       0       1       0                               0D0000010
     123       6       0       0       0       0       0       000010200D0000011
     123       0       0       1       0                               0D0000012
     123       7       0       0       0       0       0       000010200D0000013
     123       0       0       1       0                               0D0000014
     508       8       0       0       0       0       0       000010000D0000015
     508       0       0       1       1                               0D0000016
     504       9       0       0       0       0       0       000010001D0000017
     504       0       0       3       1                               0D0000018
     110      12       0       0       0       0       0       000010000D0000019
     110       0       0       1       0                               0D0000020
     502      13       0       0       0       0       0       000010000D0000021
     502       0       0       2       1                               0D0000022
     110      15       0       0       0       0       0       000010000D0000023
     110       0       0       1       0                               0D0000024
     110      16       0       0       0       0       0       000010000D0000025
     110       0       0       1       0                               0D0000026
     110      17       0       0       0       0       0       000010000D0000027
     110       0       0       1       0                               0D0000028
     110      18       0       0       0       0       0       000010000D0000029
     110       0       0       1       0                               0D0000030
     110      19       0       0       0       0       0       000010000D0000031
     110       0       0       1       0                               0D0000032
     110      20       0       0       0       0       0       000010000D0000033
     110       0       0       1       0                               0D0000034
     110      21       0       0       0       0       0       000010000D0000035
     110       0       0       1       0                               0D0000036
     110      22       0       0       0       0       0       000010000D0000037
     110       0       0       1       0                               0D0000038
     110      23       0       0       0       0       0       000010000D0000039
     110       0       0       1       0                               0D0000040
     110      24       0       0       0       0       0       000010000D0000041
     110       0       0       1       0                               0D0000042
     110      25       0       0       0       0       0       000010000D0000043
     110       0       0       1       0                               0D0000044
     510      26       0       0       0       0       0       000010000D0000045
     510       0       0       1       1                               0D0000046
     190      27       0       0       0       0       0       000010000D0000047
     190       0       0       1       1                               0D0000048
     116      28       0       0       0       0       0       000010400D0000049
     116       0       0       1       0                               0D0000050
     123      29       0       0       0       0       0       000010200D0000051
     123       0       0       1       0                               0D0000052
     123      30       0       0       0       0       0       000010200D0000053
     123       0       0       1       0                               0D0000054
     508      31       0       0       0       0       0       000010000D0000055
     508       0       0       1       1                               0D0000056
     510      32       0       0       0       0       0       000010000D0000057
     510       0       0       1       1                               0D0000058
     190      33       0       0       0       0       0       000010000D0000059
     190       0       0       1       1                               0D0000060
     116      34       0       0       0       0       0       000010400D0000061
     116       0       0       1       0                               0D0000062
     123      35       0       0       0       0       0       000010200D0000063
     123       0       0       1       0                               0D0000064
     123      36       0       0       0       0       0       000010200D0000065
     123       0       0       1       0                               0D0000066
     508      37       0       0       0       0       0       000010000D0000067
     508       0       0       1       1                               0D0000068
     510      38       0       0       0       0       0       000010000D0000069
     510       0       0       1       1                               0D0000070
     190      39       0       0       0       0       0       000010000D0000071
     190       0       0       1       1                               0D0000072
     116      40       0       0       0       0       0       000010400D0000073
     116       0       0       1       0                               0D0000074
     123      41       0       0       0       0       0       000010200D0000075
     123       0       0       1       0                               0D0000076
     123      42       0       0       0       0       0       000010200D0000077
     123       0       0       1       0                               0D0000078
     508      43       0       0       0       0       0       000010000D0000079
     508       0       0       1       1                               0D0000080
     510      44       0       0       0       0       0       000010000D0000081
     510       0       0       1       1                               0D0000082
     190      45       0       0       0       0       0       000010000D0000083
     190       0       0       1       1                               0D0000084
     116      46       0       0       0       0       0       000010400D0000085
     116       0       0       1       0                               0D0000086
     123      47       0       0       0       0       0       000010200D0000087
     123       0       0       1       0                               0D0000088
     123      48       0       0       0       0       0       000010200D0000089
     123       0       0       1       0                               0D0000090
     508      49       0       0       0       0       0       000010000D0000091
     508       0       0       1       1                               0D0000092
     510      50       0       0       0       0       0       000010000D0000093
     510       0       0       1       1                               0D0000094
     190      51       0       0       0       0       0       000010000D0000095
     190       0       0       1       1                               0D0000096
     116      52       0       0       0       0       0       000010400D0000097
     116       0       0       1       0                               0D0000098
     123      53       0       0       0       0       0       000010200D0000099
     123       0       0       1       0                               0D0000100
     123      54       0       0       0       0       0       000010200D0000101
     123       0       0       1       0                               0D0000102
     508      55       0       0       0       0       0       000010000D0000103
     508       0       0       1       1                               0D0000104
     186      56       0       0       0       0       0       000000000D0000105
     186       0       0       1       0                               0D0000106
     514      57       0       0       0       0       0       000010000D0000107
     514       0       0       1       1                               0D0000108
     510      58       0       0       0       0       0       000010000D0000109
     510       0       0       1       1                               0D0000110
     196      59       0       0       0       0       0       000010000D0000111
     196       0       0       1       1                               0D0000112
     116      60       0       0       0       0       0       000010400D0000113
     116       0       0       1       0                               0D0000114
     123      61       0       0       0       0       0       000010200D0000115
     123       0       0       1       0                               0D0000116
     123      62       0       0       0       0       0       000010200D0000117
     123       0       0       1       0                               0D0000118
     508      63       0       0       0       0       0       000010000D0000119
     508       0       0       2       1                               0D0000120
     502      65       0       0       0       0       0       000010000D0000121
     502       0       0       2       1                               0D0000122
     110      67       0       0       0       0       0       000010000D0000123
     110       0       0       1       0                               0D0000124
     504      68       0       0       0       0       0       000010001D0000125
     504       0       0       1       1                               0D0000126
     100      69       0       0       0       0     129       000010000D0000127
     100       0       0       1       0                               0D0000128
     124      70       0       0       0       0       0       000000000D0000129
     124       0       0       2       0                               0D0000130
     110      72       0       0       0       0       0       000010000D0000131
     110       0       0       1       0                               0D0000132
     110      73       0       0       0       0       0       000010000D0000133
     110       0       0       1       0                               0D0000134
     110      74       0       0       0       0       0       000010000D0000135
     110       0       0       1       0                               0D0000136
186,3,1,0;                                                       0000001P0000001
514,6,5,0,45,1,57,0,69,1,81,0,93,1;                              0000003P0000002
510,7,1,1,15;                                                    0000005P0000003
190,9,11,13;                                                     0000007P0000004
116,0.,0.,0.,0;                                                  0000009P0000005
123,1.,0.,-0.;                                                   0000011P0000006
123,0.,0.,1.;                                                    0000013P0000007
508,4,0,17,1,0,0,0,17,2,1,0,0,17,3,1,0,0,17,4,0,0;               0000015P0000008
504,12,19,21,1,21,2,23,21,1,21,3,25,21,3,21,4,27,21,2,21,4,29,   0000017P0000009
21,5,21,6,31,21,5,21,7,33,21,7,21,8,35,21,6,21,8,37,21,1,21,5,   0000017P0000010
39,21,2,21,6,41,21,3,21,7,43,21,4,21,8;                          0000017P0000011
110,0.,0.,0.,0.,0.,50.;                                          0000019P0000012
502,8,0.,0.,0.,0.,0.,50.,0.,50.,0.,0.,50.,50.,50.,0.,0.,50.,0.,  0000021P0000013
50.,50.,50.,0.,50.,50.,50.;                                      0000021P0000014
110,0.,0.,0.,0.,50.,0.;                                          0000023P0000015
110,0.,50.,0.,0.,50.,50.;                                        0000025P0000016
110,0.,0.,50.,0.,50.,50.;                                        0000027P0000017
110,50.,0.,0.,50.,0.,50.;                                        0000029P0000018
110,50.,0.,0.,50.,50.,0.;                                        0000031P0000019
110,50.,50.,0.,50.,50.,50.;                                      0000033P0000020
110,50.,0.,50.,50.,50.,50.;                                      0000035P0000021
110,0.,0.,0.,50.,0.,0.;                                          0000037P0000022
110,0.,0.,50.,50.,0.,50.;                                        0000039P0000023
110,0.,50.,0.,50.,50.,0.;                                        0000041P0000024
110,0.,50.,50.,50.,50.,50.;                                      0000043P0000025
510,47,1,1,55;                                                   0000045P0000026
190,49,51,53;                                                    0000047P0000027
116,50.,0.,0.,0;                                                 0000049P0000028
123,1.,0.,-0.;                                                   0000051P0000029
123,0.,0.,1.;                                                    0000053P0000030
508,4,0,17,5,0,0,0,17,6,1,0,0,17,7,1,0,0,17,8,0,0;               0000055P0000031
510,59,1,1,67;                                                   0000057P0000032
190,61,63,65;                                                    0000059P0000033
116,0.,0.,0.,0;                                                  0000061P0000034
123,-0.,1.,0.;                                                   0000063P0000035
123,0.,0.,1.;                                                    0000065P0000036
508,4,0,17,9,0,0,0,17,1,1,0,0,17,10,1,0,0,17,5,0,0;              0000067P0000037
510,71,1,1,79;                                                   0000069P0000038
190,73,75,77;                                                    0000071P0000039
116,0.,50.,0.,0;                                                 0000073P0000040
123,-0.,1.,0.;                                                   0000075P0000041
123,0.,0.,1.;                                                    0000077P0000042
508,4,0,17,11,0,0,0,17,3,1,0,0,17,12,1,0,0,17,7,0,0;             0000079P0000043
510,83,1,1,91;                                                   0000081P0000044
190,85,87,89;                                                    0000083P0000045
116,0.,0.,0.,0;                                                  0000085P0000046
123,0.,0.,1.;                                                    0000087P0000047
123,1.,0.,-0.;                                                   0000089P0000048
508,4,0,17,2,0,0,0,17,9,1,0,0,17,6,1,0,0,17,11,0,0;              0000091P0000049
510,95,1,1,103;                                                  0000093P0000050
190,97,99,101;                                                   0000095P0000051
116,0.,0.,50.,0;                                                 0000097P0000052
123,0.,0.,1.;                                                    0000099P0000053
123,1.,0.,-0.;                                                   0000101P0000054
508,4,0,17,4,0,0,0,17,10,1,0,0,17,8,1,0,0,17,12,0,0;             0000103P0000055
186,107,1,0;                                                     0000105P0000056
514,1,109,1;                                                     0000107P0000057
510,111,1,1,119;                                                 0000109P0000058
196,113,20.,115,117;                                             0000111P0000059
116,0.,0.,0.,0;                                                  0000113P0000060
123,0.,0.,1.;                                                    0000115P0000061
123,1.,0.,-0.;                                                   0000117P0000062
508,4,1,121,1,0,1,0,123,0,125,1,0,1,0,131,1,121,2,1,1,0,133,0,   0000119P0000063
125,1,1,1,0,135;                                                 0000119P0000064
502,2,1.224646799E-15,-2.999519565E-31,20.,1.224646799E-15,      0000121P0000065
-2.999519565E-31,-20.;                                           0000121P0000066
110,360.,90.,0.,0.,90.,0.;                                       0000123P0000067
504,1,127,121,2,121,1;                                           0000125P0000068
100,0.,0.,0.,-3.673940397E-15,-20.,6.123233996E-15,20.;          0000127P0000069
124,1.,0.,-2.449293598E-16,0.,-2.449293598E-16,0.,-1.,0.,0.,1.,  0000129P0000070
0.,0.;                                                           0000129P0000071
110,0.,90.,-0.,0.,-90.,-0.;                                      0000131P0000072
110,0.,-90.,0.,360.,-90.,0.;                                     0000133P0000073
110,360.,-90.,0.,360.,90.,0.;                                    0000135P0000074
S      1G      4D    136P     74                                        T0000001
